<mxfile host="app.diagrams.net" modified="2022-02-24T06:12:47.733Z" agent="5.0 (Windows NT 10.0; Win64; x64) AppleWebKit/537.36 (KHTML, like Gecko) Chrome/98.0.4758.102 Safari/537.36" etag="A2Gt_NabNPRa5JDlQE7K" version="16.6.3" type="github">
  <diagram id="cJZTpccyFhIemmtKquip" name="Page-1">
    <mxGraphModel dx="1865" dy="547" grid="1" gridSize="10" guides="1" tooltips="1" connect="1" arrows="1" fold="1" page="1" pageScale="1" pageWidth="827" pageHeight="1169" math="0" shadow="0">
      <root>
        <mxCell id="0" />
        <mxCell id="1" parent="0" />
        <mxCell id="vQyaM1XznP2hlGFj0-TY-23" value="" style="whiteSpace=wrap;html=1;aspect=fixed;dashed=1;fontFamily=Lucida Console;fontSize=13;" vertex="1" parent="1">
          <mxGeometry x="-10" y="310" width="845" height="845" as="geometry" />
        </mxCell>
        <mxCell id="vQyaM1XznP2hlGFj0-TY-5" value="" style="rounded=0;whiteSpace=wrap;html=1;fontFamily=Lucida Console;fontSize=13;fontColor=#FF3333;fillColor=#52CCCC;dashed=1;strokeColor=#46ADAD;" vertex="1" parent="1">
          <mxGeometry x="20" y="530" width="775" height="150" as="geometry" />
        </mxCell>
        <mxCell id="vQyaM1XznP2hlGFj0-TY-15" style="edgeStyle=none;rounded=0;orthogonalLoop=1;jettySize=auto;html=1;fontFamily=Lucida Console;fontSize=13;fontColor=#000000;endArrow=block;endFill=1;" edge="1" parent="1" source="vQyaM1XznP2hlGFj0-TY-1" target="vQyaM1XznP2hlGFj0-TY-8">
          <mxGeometry relative="1" as="geometry" />
        </mxCell>
        <mxCell id="vQyaM1XznP2hlGFj0-TY-1" value="set name = &#39;aa&#39;&lt;br style=&quot;font-size: 13px&quot;&gt;&lt;font color=&quot;#ff3333&quot;&gt;trx_id = 12&lt;/font&gt;" style="ellipse;whiteSpace=wrap;html=1;fillColor=#d5e8d4;strokeColor=#82b366;fontStyle=1;fontSize=13;fontFamily=Lucida Console;" vertex="1" parent="1">
          <mxGeometry x="240" y="390" width="140" height="80" as="geometry" />
        </mxCell>
        <mxCell id="vQyaM1XznP2hlGFj0-TY-16" style="edgeStyle=none;rounded=0;orthogonalLoop=1;jettySize=auto;html=1;entryX=0.5;entryY=0;entryDx=0;entryDy=0;fontFamily=Lucida Console;fontSize=13;fontColor=#000000;endArrow=block;endFill=1;" edge="1" parent="1" source="vQyaM1XznP2hlGFj0-TY-3" target="vQyaM1XznP2hlGFj0-TY-10">
          <mxGeometry relative="1" as="geometry" />
        </mxCell>
        <mxCell id="vQyaM1XznP2hlGFj0-TY-3" value="set name = &#39;bb&#39;&lt;br style=&quot;font-size: 13px&quot;&gt;&lt;font color=&quot;#ff3333&quot;&gt;trx_id = 15&lt;/font&gt;" style="ellipse;whiteSpace=wrap;html=1;fillColor=#d5e8d4;strokeColor=#82b366;fontStyle=1;fontSize=13;fontFamily=Lucida Console;" vertex="1" parent="1">
          <mxGeometry x="420" y="390" width="140" height="80" as="geometry" />
        </mxCell>
        <mxCell id="vQyaM1XznP2hlGFj0-TY-17" style="edgeStyle=none;rounded=0;orthogonalLoop=1;jettySize=auto;html=1;fontFamily=Lucida Console;fontSize=13;fontColor=#000000;endArrow=block;endFill=1;" edge="1" parent="1" source="vQyaM1XznP2hlGFj0-TY-4" target="vQyaM1XznP2hlGFj0-TY-12">
          <mxGeometry relative="1" as="geometry" />
        </mxCell>
        <mxCell id="vQyaM1XznP2hlGFj0-TY-4" value="set name = &#39;cc&#39;&lt;br style=&quot;font-size: 13px&quot;&gt;&lt;font color=&quot;#ff3333&quot;&gt;trx_id = 20&lt;/font&gt;" style="ellipse;whiteSpace=wrap;html=1;fillColor=#d5e8d4;strokeColor=#82b366;fontStyle=1;fontSize=13;fontFamily=Lucida Console;" vertex="1" parent="1">
          <mxGeometry x="610" y="390" width="140" height="80" as="geometry" />
        </mxCell>
        <mxCell id="vQyaM1XznP2hlGFj0-TY-6" value="一行数据" style="text;html=1;strokeColor=none;fillColor=none;align=center;verticalAlign=middle;whiteSpace=wrap;rounded=0;dashed=1;fontFamily=Lucida Console;fontSize=13;fontColor=#000000;fontStyle=1" vertex="1" parent="1">
          <mxGeometry x="35" y="540" width="60" height="30" as="geometry" />
        </mxCell>
        <mxCell id="vQyaM1XznP2hlGFj0-TY-7" value="&lt;div style=&quot;text-align: left&quot;&gt;&lt;b&gt;&lt;font color=&quot;#ff9747&quot;&gt;V1&lt;/font&gt;&lt;/b&gt;&lt;/div&gt;name = &#39;x&#39;&lt;br&gt;row_id = 10" style="rounded=1;whiteSpace=wrap;html=1;dashed=1;fontFamily=Lucida Console;fontSize=13;strokeColor=#6c8ebf;fillColor=#dae8fc;" vertex="1" parent="1">
          <mxGeometry x="45" y="585" width="120" height="65" as="geometry" />
        </mxCell>
        <mxCell id="vQyaM1XznP2hlGFj0-TY-21" style="edgeStyle=none;rounded=0;orthogonalLoop=1;jettySize=auto;html=1;entryX=1;entryY=0.5;entryDx=0;entryDy=0;fontFamily=Lucida Console;fontSize=13;fontColor=#000000;endArrow=block;endFill=1;" edge="1" parent="1" source="vQyaM1XznP2hlGFj0-TY-8" target="vQyaM1XznP2hlGFj0-TY-7">
          <mxGeometry relative="1" as="geometry" />
        </mxCell>
        <mxCell id="vQyaM1XznP2hlGFj0-TY-8" value="&lt;div style=&quot;text-align: left&quot;&gt;&lt;b&gt;&lt;font color=&quot;#ff9747&quot;&gt;V2&lt;/font&gt;&lt;/b&gt;&lt;/div&gt;name = &#39;aa&#39;&lt;br&gt;row_id = 12" style="rounded=1;whiteSpace=wrap;html=1;dashed=1;fontFamily=Lucida Console;fontSize=13;strokeColor=#6c8ebf;fillColor=#dae8fc;" vertex="1" parent="1">
          <mxGeometry x="245" y="585" width="120" height="65" as="geometry" />
        </mxCell>
        <mxCell id="vQyaM1XznP2hlGFj0-TY-20" style="edgeStyle=none;rounded=0;orthogonalLoop=1;jettySize=auto;html=1;entryX=1;entryY=0.5;entryDx=0;entryDy=0;fontFamily=Lucida Console;fontSize=13;fontColor=#000000;endArrow=block;endFill=1;" edge="1" parent="1" source="vQyaM1XznP2hlGFj0-TY-10" target="vQyaM1XznP2hlGFj0-TY-8">
          <mxGeometry relative="1" as="geometry" />
        </mxCell>
        <mxCell id="vQyaM1XznP2hlGFj0-TY-10" value="&lt;div style=&quot;text-align: left&quot;&gt;&lt;b&gt;&lt;font color=&quot;#ff9747&quot;&gt;V3&lt;/font&gt;&lt;/b&gt;&lt;/div&gt;name= &#39;bb&#39;&lt;br&gt;row_id = 15" style="rounded=1;whiteSpace=wrap;html=1;dashed=1;fontFamily=Lucida Console;fontSize=13;strokeColor=#6c8ebf;fillColor=#dae8fc;" vertex="1" parent="1">
          <mxGeometry x="445" y="585" width="120" height="65" as="geometry" />
        </mxCell>
        <mxCell id="vQyaM1XznP2hlGFj0-TY-18" style="edgeStyle=none;rounded=0;orthogonalLoop=1;jettySize=auto;html=1;entryX=1;entryY=0.5;entryDx=0;entryDy=0;fontFamily=Lucida Console;fontSize=13;fontColor=#000000;endArrow=block;endFill=1;" edge="1" parent="1" source="vQyaM1XznP2hlGFj0-TY-12" target="vQyaM1XznP2hlGFj0-TY-10">
          <mxGeometry relative="1" as="geometry" />
        </mxCell>
        <mxCell id="vQyaM1XznP2hlGFj0-TY-12" value="&lt;div style=&quot;text-align: left&quot;&gt;&lt;b&gt;&lt;font color=&quot;#ff9747&quot;&gt;V4&lt;/font&gt;&lt;/b&gt;&lt;/div&gt;name&amp;nbsp;= &#39;cc&#39;&lt;br&gt;row_id = 20" style="rounded=1;whiteSpace=wrap;html=1;dashed=1;fontFamily=Lucida Console;fontSize=13;strokeColor=#6c8ebf;fillColor=#dae8fc;" vertex="1" parent="1">
          <mxGeometry x="645" y="585" width="120" height="65" as="geometry" />
        </mxCell>
        <mxCell id="vQyaM1XznP2hlGFj0-TY-26" value="undo log" style="text;html=1;strokeColor=none;fillColor=none;align=center;verticalAlign=middle;whiteSpace=wrap;rounded=0;dashed=1;fontFamily=Lucida Console;fontSize=13;fontColor=#FF3333;" vertex="1" parent="1">
          <mxGeometry x="180" y="585" width="60" height="30" as="geometry" />
        </mxCell>
        <mxCell id="vQyaM1XznP2hlGFj0-TY-27" value="undo log" style="text;html=1;strokeColor=none;fillColor=none;align=center;verticalAlign=middle;whiteSpace=wrap;rounded=0;dashed=1;fontFamily=Lucida Console;fontSize=13;fontColor=#FF3333;" vertex="1" parent="1">
          <mxGeometry x="377.5" y="585" width="60" height="30" as="geometry" />
        </mxCell>
        <mxCell id="vQyaM1XznP2hlGFj0-TY-28" value="undo log" style="text;html=1;strokeColor=none;fillColor=none;align=center;verticalAlign=middle;whiteSpace=wrap;rounded=0;dashed=1;fontFamily=Lucida Console;fontSize=13;fontColor=#FF3333;" vertex="1" parent="1">
          <mxGeometry x="580" y="585" width="60" height="30" as="geometry" />
        </mxCell>
        <mxCell id="vQyaM1XznP2hlGFj0-TY-29" value="current version" style="text;html=1;strokeColor=none;fillColor=none;align=center;verticalAlign=middle;whiteSpace=wrap;rounded=0;dashed=1;fontFamily=Lucida Console;fontSize=13;fontColor=#000000;" vertex="1" parent="1">
          <mxGeometry x="650" y="650" width="120" height="30" as="geometry" />
        </mxCell>
      </root>
    </mxGraphModel>
  </diagram>
</mxfile>
